<svg width="116" height="48" viewBox="0 0 116 48" fill="none" xmlns="http://www.w3.org/2000/svg">
<path d="M24 0C37.2548 0 48 10.7452 48 24C48 37.2548 37.2548 48 24 48C10.7452 48 0 37.2548 0 24C0 10.7452 10.7452 0 24 0ZM24 12C17.3726 12 12 17.3726 12 24C12 30.6274 17.3726 36 24 36C30.6274 36 36 30.6274 36 24C36 17.3726 30.6274 12 24 12ZM24 16C28.4183 16 32 19.5817 32 24C32 28.4183 28.4183 32 24 32C19.5817 32 16 28.4183 16 24C16 19.5817 19.5817 16 24 16Z" fill="white"/>
<path d="M56.88 36L65.152 12.864H70.096L78.368 36H73.712L71.824 30.64H63.488L61.568 36H56.88ZM64.544 26.56H70.688L67.632 17.36L64.544 26.56ZM79.8368 36V33.392L87.9968 22.72H80.2528V19.456H93.6608V22.064L85.4848 32.736H93.7088V36H79.8368ZM96.1118 36V19.456H100.576V36H96.1118ZM96.0638 17.088V12.88H100.608V17.088H96.0638ZM104.049 36V19.456H108.545V23.376C108.811 22.5333 109.185 21.7973 109.665 21.168C110.155 20.528 110.747 20.032 111.441 19.68C112.134 19.3173 112.918 19.136 113.793 19.136C113.942 19.136 114.081 19.1467 114.209 19.168C114.347 19.1787 114.449 19.2 114.513 19.232V23.68C114.417 23.6373 114.299 23.6107 114.161 23.6C114.033 23.5893 113.915 23.5787 113.809 23.568C112.891 23.4933 112.107 23.52 111.457 23.648C110.806 23.776 110.278 23.9947 109.873 24.304C109.467 24.6133 109.174 24.992 108.993 25.44C108.811 25.888 108.721 26.3893 108.721 26.944V36H104.049Z" fill="white"/>
</svg>
